<mxfile host="app.diagrams.net" agent="Mozilla/5.0 (Windows NT 10.0; Win64; x64; rv:140.0) Gecko/20100101 Firefox/140.0" version="28.0.6">
  <diagram name="Page-1" id="Zg2J0i8kcsBhqcDElQuv">
    <mxGraphModel dx="576" dy="750" grid="1" gridSize="10" guides="1" tooltips="1" connect="1" arrows="1" fold="1" page="1" pageScale="1" pageWidth="850" pageHeight="1100" math="1" shadow="0">
      <root>
        <mxCell id="0" />
        <mxCell id="1" parent="0" />
        <mxCell id="mFYE1-h2MJAMsI_2LWZ7-1" value="&lt;font style=&quot;font-size: 14px;&quot;&gt;$$256 \times 256$$&lt;/font&gt;" style="text;html=1;align=center;verticalAlign=middle;resizable=0;points=[];autosize=1;strokeColor=none;fillColor=none;rotation=-90;" vertex="1" parent="1">
          <mxGeometry x="1143.5" y="360" width="150" height="30" as="geometry" />
        </mxCell>
        <mxCell id="mFYE1-h2MJAMsI_2LWZ7-2" value="$$11$$" style="text;html=1;align=center;verticalAlign=middle;resizable=0;points=[];autosize=1;strokeColor=none;fillColor=none;rotation=0;" vertex="1" parent="1">
          <mxGeometry x="1200" y="180" width="60" height="30" as="geometry" />
        </mxCell>
        <mxCell id="mFYE1-h2MJAMsI_2LWZ7-3" value="" style="shape=flexArrow;endArrow=classic;html=1;rounded=0;fillColor=#000066;strokeColor=#000066;endWidth=7;endSize=6.38;" edge="1" parent="1">
          <mxGeometry width="50" height="50" relative="1" as="geometry">
            <mxPoint x="1233.5" y="309.5" as="sourcePoint" />
            <mxPoint x="1263.5" y="310" as="targetPoint" />
          </mxGeometry>
        </mxCell>
        <mxCell id="mFYE1-h2MJAMsI_2LWZ7-4" value="" style="shape=flexArrow;endArrow=classic;html=1;rounded=0;fillColor=#000066;strokeColor=#000066;endWidth=7;endSize=6.38;entryX=0;entryY=0.5;entryDx=0;entryDy=0;" edge="1" parent="1">
          <mxGeometry width="50" height="50" relative="1" as="geometry">
            <mxPoint x="1313.5" y="509.5" as="sourcePoint" />
            <mxPoint x="1343.5" y="510" as="targetPoint" />
          </mxGeometry>
        </mxCell>
        <mxCell id="mFYE1-h2MJAMsI_2LWZ7-5" value="" style="shape=flexArrow;endArrow=classic;html=1;rounded=0;fillColor=#000066;strokeColor=#000066;endWidth=7;endSize=6.38;entryX=0;entryY=0.5;entryDx=0;entryDy=0;" edge="1" parent="1">
          <mxGeometry width="50" height="50" relative="1" as="geometry">
            <mxPoint x="1393.5" y="634.5" as="sourcePoint" />
            <mxPoint x="1423.5" y="635" as="targetPoint" />
          </mxGeometry>
        </mxCell>
        <mxCell id="mFYE1-h2MJAMsI_2LWZ7-6" value="" style="shape=flexArrow;endArrow=classic;html=1;rounded=0;fillColor=#660000;strokeColor=#660000;endWidth=7;endSize=6.38;" edge="1" parent="1">
          <mxGeometry width="50" height="50" relative="1" as="geometry">
            <mxPoint x="1310.5" y="420" as="sourcePoint" />
            <mxPoint x="1310.5" y="450" as="targetPoint" />
          </mxGeometry>
        </mxCell>
        <mxCell id="mFYE1-h2MJAMsI_2LWZ7-7" value="" style="shape=flexArrow;endArrow=classic;html=1;rounded=0;fillColor=#660000;strokeColor=#660000;endWidth=7;endSize=6.38;" edge="1" parent="1">
          <mxGeometry width="50" height="50" relative="1" as="geometry">
            <mxPoint x="1388" y="570" as="sourcePoint" />
            <mxPoint x="1388" y="600" as="targetPoint" />
          </mxGeometry>
        </mxCell>
        <mxCell id="mFYE1-h2MJAMsI_2LWZ7-8" value="" style="shape=flexArrow;endArrow=classic;html=1;rounded=0;fillColor=#660000;strokeColor=#660000;endWidth=7;endSize=6.38;" edge="1" parent="1">
          <mxGeometry width="50" height="50" relative="1" as="geometry">
            <mxPoint x="1485.5" y="670" as="sourcePoint" />
            <mxPoint x="1485.5" y="700" as="targetPoint" />
          </mxGeometry>
        </mxCell>
        <mxCell id="mFYE1-h2MJAMsI_2LWZ7-9" value="" style="shape=flexArrow;endArrow=classic;html=1;rounded=0;fillColor=#660000;strokeColor=#660000;endWidth=7;endSize=6.38;" edge="1" parent="1">
          <mxGeometry width="50" height="50" relative="1" as="geometry">
            <mxPoint x="1638" y="748.75" as="sourcePoint" />
            <mxPoint x="1638" y="778.75" as="targetPoint" />
          </mxGeometry>
        </mxCell>
        <mxCell id="mFYE1-h2MJAMsI_2LWZ7-10" value="" style="shape=flexArrow;endArrow=classic;html=1;rounded=0;fillColor=#000066;strokeColor=#000066;endWidth=7;endSize=6.38;entryX=0;entryY=0.5;entryDx=0;entryDy=0;" edge="1" parent="1">
          <mxGeometry width="50" height="50" relative="1" as="geometry">
            <mxPoint x="1703.5" y="793.75" as="sourcePoint" />
            <mxPoint x="1703.5" y="793.75" as="targetPoint" />
          </mxGeometry>
        </mxCell>
        <mxCell id="mFYE1-h2MJAMsI_2LWZ7-11" value="" style="shape=flexArrow;endArrow=classic;html=1;rounded=0;fillColor=#999999;strokeColor=#999999;endWidth=7;endSize=6.38;entryX=0.933;entryY=0.167;entryDx=0;entryDy=0;entryPerimeter=0;" edge="1" parent="1" target="mFYE1-h2MJAMsI_2LWZ7-104">
          <mxGeometry width="50" height="50" relative="1" as="geometry">
            <mxPoint x="1328.5" y="310" as="sourcePoint" />
            <mxPoint x="1873.5" y="310" as="targetPoint" />
          </mxGeometry>
        </mxCell>
        <mxCell id="mFYE1-h2MJAMsI_2LWZ7-12" value="$$16$$" style="text;html=1;align=center;verticalAlign=middle;resizable=0;points=[];autosize=1;strokeColor=none;fillColor=none;rotation=0;" vertex="1" parent="1">
          <mxGeometry x="1276" y="180" width="70" height="30" as="geometry" />
        </mxCell>
        <mxCell id="mFYE1-h2MJAMsI_2LWZ7-13" value="$$32$$" style="text;html=1;align=center;verticalAlign=middle;resizable=0;points=[];autosize=1;strokeColor=none;fillColor=none;rotation=0;" vertex="1" parent="1">
          <mxGeometry x="1313.5" y="430" width="70" height="30" as="geometry" />
        </mxCell>
        <mxCell id="mFYE1-h2MJAMsI_2LWZ7-14" value="&lt;div style=&quot;font-size: 14px;&quot;&gt;$$128^2$$&lt;/div&gt;" style="text;html=1;align=center;verticalAlign=middle;resizable=0;points=[];autosize=1;strokeColor=none;fillColor=none;rotation=-90;" vertex="1" parent="1">
          <mxGeometry x="1253.5" y="530" width="90" height="30" as="geometry" />
        </mxCell>
        <mxCell id="mFYE1-h2MJAMsI_2LWZ7-15" value="&lt;div style=&quot;font-size: 13px;&quot;&gt;$$64^2$$&lt;/div&gt;" style="text;html=1;align=center;verticalAlign=middle;resizable=0;points=[];autosize=1;strokeColor=none;fillColor=none;rotation=-90;" vertex="1" parent="1">
          <mxGeometry x="1333.5" y="640" width="80" height="30" as="geometry" />
        </mxCell>
        <mxCell id="mFYE1-h2MJAMsI_2LWZ7-16" value="$$64$$" style="text;html=1;align=center;verticalAlign=middle;resizable=0;points=[];autosize=1;strokeColor=none;fillColor=none;rotation=0;" vertex="1" parent="1">
          <mxGeometry x="1403.5" y="580" width="70" height="30" as="geometry" />
        </mxCell>
        <mxCell id="mFYE1-h2MJAMsI_2LWZ7-17" value="&lt;div style=&quot;font-size: 13px;&quot;&gt;$$32^2$$&lt;/div&gt;" style="text;html=1;align=center;verticalAlign=middle;resizable=0;points=[];autosize=1;strokeColor=none;fillColor=none;rotation=-90;" vertex="1" parent="1">
          <mxGeometry x="1431" y="720" width="80" height="30" as="geometry" />
        </mxCell>
        <mxCell id="mFYE1-h2MJAMsI_2LWZ7-18" value="$$128$$" style="text;html=1;align=center;verticalAlign=middle;resizable=0;points=[];autosize=1;strokeColor=none;fillColor=none;rotation=0;" vertex="1" parent="1">
          <mxGeometry x="1603.5" y="680" width="70" height="30" as="geometry" />
        </mxCell>
        <mxCell id="mFYE1-h2MJAMsI_2LWZ7-19" value="&lt;div style=&quot;font-size: 14px;&quot;&gt;$$16^2$$&lt;/div&gt;" style="text;html=1;align=center;verticalAlign=middle;resizable=0;points=[];autosize=1;strokeColor=none;fillColor=none;rotation=-90;" vertex="1" parent="1">
          <mxGeometry x="1568.5" y="780" width="80" height="30" as="geometry" />
        </mxCell>
        <mxCell id="mFYE1-h2MJAMsI_2LWZ7-20" value="" style="shape=flexArrow;endArrow=classic;html=1;rounded=0;fillColor=#009900;strokeColor=#009900;endWidth=7;endSize=6.38;" edge="1" parent="1">
          <mxGeometry width="50" height="50" relative="1" as="geometry">
            <mxPoint x="1813" y="779" as="sourcePoint" />
            <mxPoint x="1813" y="750" as="targetPoint" />
          </mxGeometry>
        </mxCell>
        <mxCell id="mFYE1-h2MJAMsI_2LWZ7-21" value="" style="shape=flexArrow;endArrow=classic;html=1;rounded=0;fillColor=#999999;strokeColor=#999999;endWidth=7;endSize=6.38;entryX=0.889;entryY=0.133;entryDx=0;entryDy=0;entryPerimeter=0;" edge="1" parent="1" target="mFYE1-h2MJAMsI_2LWZ7-90">
          <mxGeometry width="50" height="50" relative="1" as="geometry">
            <mxPoint x="1408.5" y="510" as="sourcePoint" />
            <mxPoint x="1833.5" y="510" as="targetPoint" />
          </mxGeometry>
        </mxCell>
        <mxCell id="mFYE1-h2MJAMsI_2LWZ7-22" value="" style="shape=flexArrow;endArrow=classic;html=1;rounded=0;fillColor=#999999;strokeColor=#999999;endWidth=7;endSize=6.38;entryX=0.75;entryY=0.067;entryDx=0;entryDy=0;entryPerimeter=0;" edge="1" parent="1" target="mFYE1-h2MJAMsI_2LWZ7-66">
          <mxGeometry width="50" height="50" relative="1" as="geometry">
            <mxPoint x="1508.5" y="635" as="sourcePoint" />
            <mxPoint x="1718.5" y="635" as="targetPoint" />
          </mxGeometry>
        </mxCell>
        <mxCell id="mFYE1-h2MJAMsI_2LWZ7-23" value="" style="shape=flexArrow;endArrow=classic;html=1;rounded=0;fillColor=#999999;strokeColor=#999999;endWidth=7;endSize=6.38;entryX=0.625;entryY=-0.033;entryDx=0;entryDy=0;entryPerimeter=0;" edge="1" parent="1" target="mFYE1-h2MJAMsI_2LWZ7-57">
          <mxGeometry width="50" height="50" relative="1" as="geometry">
            <mxPoint x="1668.5" y="725" as="sourcePoint" />
            <mxPoint x="1708.5" y="725" as="targetPoint" />
          </mxGeometry>
        </mxCell>
        <mxCell id="mFYE1-h2MJAMsI_2LWZ7-24" value="$$32$$" style="text;html=1;align=center;verticalAlign=middle;resizable=0;points=[];autosize=1;strokeColor=none;fillColor=none;rotation=0;" vertex="1" parent="1">
          <mxGeometry x="1353.5" y="430" width="70" height="30" as="geometry" />
        </mxCell>
        <mxCell id="mFYE1-h2MJAMsI_2LWZ7-25" value="" style="rounded=0;whiteSpace=wrap;html=1;fillColor=#dae8fc;strokeColor=#6c8ebf;" vertex="1" parent="1">
          <mxGeometry x="1228.5" y="210" width="3" height="200" as="geometry" />
        </mxCell>
        <mxCell id="mFYE1-h2MJAMsI_2LWZ7-26" value="&lt;font style=&quot;font-size: 14px;&quot;&gt;$$256 \times 256$$&lt;/font&gt;" style="text;html=1;align=center;verticalAlign=middle;resizable=0;points=[];autosize=1;strokeColor=none;fillColor=none;rotation=-90;" vertex="1" parent="1">
          <mxGeometry x="1183.5" y="360" width="150" height="30" as="geometry" />
        </mxCell>
        <mxCell id="mFYE1-h2MJAMsI_2LWZ7-27" value="" style="shape=flexArrow;endArrow=classic;html=1;rounded=0;fillColor=#000066;strokeColor=#000066;endWidth=7;endSize=6.38;" edge="1" parent="1">
          <mxGeometry width="50" height="50" relative="1" as="geometry">
            <mxPoint x="1273.5" y="309.5" as="sourcePoint" />
            <mxPoint x="1303.5" y="310" as="targetPoint" />
          </mxGeometry>
        </mxCell>
        <mxCell id="mFYE1-h2MJAMsI_2LWZ7-28" value="" style="rounded=0;whiteSpace=wrap;html=1;fillColor=#dae8fc;strokeColor=#6c8ebf;" vertex="1" parent="1">
          <mxGeometry x="1268.5" y="210" width="5" height="200" as="geometry" />
        </mxCell>
        <mxCell id="mFYE1-h2MJAMsI_2LWZ7-29" value="" style="rounded=0;whiteSpace=wrap;html=1;fillColor=#FFFFFF;strokeColor=#6c8ebf;" vertex="1" parent="1">
          <mxGeometry x="2118.5" y="210" width="5" height="200" as="geometry" />
        </mxCell>
        <mxCell id="mFYE1-h2MJAMsI_2LWZ7-30" value="&lt;font style=&quot;font-size: 14px;&quot;&gt;$$256 \times 256$$&lt;/font&gt;" style="text;html=1;align=center;verticalAlign=middle;resizable=0;points=[];autosize=1;strokeColor=none;fillColor=none;rotation=-90;" vertex="1" parent="1">
          <mxGeometry x="1223.5" y="360" width="150" height="30" as="geometry" />
        </mxCell>
        <mxCell id="mFYE1-h2MJAMsI_2LWZ7-31" value="" style="shape=flexArrow;endArrow=classic;html=1;rounded=0;fillColor=#000066;strokeColor=#000066;endWidth=7;endSize=6.38;entryX=0;entryY=0.5;entryDx=0;entryDy=0;" edge="1" parent="1">
          <mxGeometry width="50" height="50" relative="1" as="geometry">
            <mxPoint x="1353.5" y="509.5" as="sourcePoint" />
            <mxPoint x="1383.5" y="510" as="targetPoint" />
          </mxGeometry>
        </mxCell>
        <mxCell id="mFYE1-h2MJAMsI_2LWZ7-32" value="" style="rounded=0;whiteSpace=wrap;html=1;fillColor=#dae8fc;strokeColor=#6c8ebf;" vertex="1" parent="1">
          <mxGeometry x="1343.5" y="460" width="10" height="100" as="geometry" />
        </mxCell>
        <mxCell id="mFYE1-h2MJAMsI_2LWZ7-33" value="&lt;div style=&quot;font-size: 14px;&quot;&gt;$$128^2$$&lt;/div&gt;" style="text;html=1;align=center;verticalAlign=middle;resizable=0;points=[];autosize=1;strokeColor=none;fillColor=none;rotation=-90;" vertex="1" parent="1">
          <mxGeometry x="1288.5" y="530" width="90" height="30" as="geometry" />
        </mxCell>
        <mxCell id="mFYE1-h2MJAMsI_2LWZ7-34" value="" style="rounded=0;whiteSpace=wrap;html=1;fillColor=#dae8fc;strokeColor=#6c8ebf;" vertex="1" parent="1">
          <mxGeometry x="1998.5" y="610" width="10" height="50" as="geometry" />
        </mxCell>
        <mxCell id="mFYE1-h2MJAMsI_2LWZ7-35" value="&lt;div style=&quot;font-size: 14px;&quot;&gt;$$128^2$$&lt;/div&gt;" style="text;html=1;align=center;verticalAlign=middle;resizable=0;points=[];autosize=1;strokeColor=none;fillColor=none;rotation=-90;" vertex="1" parent="1">
          <mxGeometry x="1328.5" y="530" width="90" height="30" as="geometry" />
        </mxCell>
        <mxCell id="mFYE1-h2MJAMsI_2LWZ7-36" value="" style="shape=flexArrow;endArrow=classic;html=1;rounded=0;fillColor=#000066;strokeColor=#000066;endWidth=7;endSize=6.38;entryX=0;entryY=0.5;entryDx=0;entryDy=0;" edge="1" parent="1">
          <mxGeometry width="50" height="50" relative="1" as="geometry">
            <mxPoint x="1446" y="634.5" as="sourcePoint" />
            <mxPoint x="1476" y="635" as="targetPoint" />
          </mxGeometry>
        </mxCell>
        <mxCell id="mFYE1-h2MJAMsI_2LWZ7-37" value="" style="rounded=0;whiteSpace=wrap;html=1;fillColor=#dae8fc;strokeColor=#6c8ebf;" vertex="1" parent="1">
          <mxGeometry x="1431" y="610" width="15" height="50" as="geometry" />
        </mxCell>
        <mxCell id="mFYE1-h2MJAMsI_2LWZ7-38" value="$$64$$" style="text;html=1;align=center;verticalAlign=middle;resizable=0;points=[];autosize=1;strokeColor=none;fillColor=none;rotation=0;" vertex="1" parent="1">
          <mxGeometry x="1451" y="580" width="70" height="30" as="geometry" />
        </mxCell>
        <mxCell id="mFYE1-h2MJAMsI_2LWZ7-39" value="&lt;div style=&quot;font-size: 13px;&quot;&gt;$$64^2$$&lt;/div&gt;" style="text;html=1;align=center;verticalAlign=middle;resizable=0;points=[];autosize=1;strokeColor=none;fillColor=none;rotation=-90;" vertex="1" parent="1">
          <mxGeometry x="1383.5" y="640" width="80" height="30" as="geometry" />
        </mxCell>
        <mxCell id="mFYE1-h2MJAMsI_2LWZ7-40" value="" style="rounded=0;whiteSpace=wrap;html=1;fillColor=#dae8fc;strokeColor=#6c8ebf;" vertex="1" parent="1">
          <mxGeometry x="1308.5" y="460" width="5" height="100" as="geometry" />
        </mxCell>
        <mxCell id="mFYE1-h2MJAMsI_2LWZ7-41" value="" style="rounded=0;whiteSpace=wrap;html=1;fillColor=#dae8fc;strokeColor=#6c8ebf;" vertex="1" parent="1">
          <mxGeometry x="1383.5" y="610" width="10" height="50" as="geometry" />
        </mxCell>
        <mxCell id="mFYE1-h2MJAMsI_2LWZ7-42" value="&lt;div style=&quot;font-size: 13px;&quot;&gt;$$64^2$$&lt;/div&gt;" style="text;html=1;align=center;verticalAlign=middle;resizable=0;points=[];autosize=1;strokeColor=none;fillColor=none;rotation=-90;" vertex="1" parent="1">
          <mxGeometry x="1431" y="640" width="80" height="30" as="geometry" />
        </mxCell>
        <mxCell id="mFYE1-h2MJAMsI_2LWZ7-43" value="" style="rounded=0;whiteSpace=wrap;html=1;fillColor=#dae8fc;strokeColor=#6c8ebf;" vertex="1" parent="1">
          <mxGeometry x="1478.5" y="610" width="15" height="50" as="geometry" />
        </mxCell>
        <mxCell id="mFYE1-h2MJAMsI_2LWZ7-44" value="$$16$$" style="text;html=1;align=center;verticalAlign=middle;resizable=0;points=[];autosize=1;strokeColor=none;fillColor=none;rotation=0;" vertex="1" parent="1">
          <mxGeometry x="1236" y="180" width="70" height="30" as="geometry" />
        </mxCell>
        <mxCell id="mFYE1-h2MJAMsI_2LWZ7-45" value="" style="rounded=0;whiteSpace=wrap;html=1;fillColor=#dae8fc;strokeColor=#6c8ebf;" vertex="1" parent="1">
          <mxGeometry x="1478.5" y="710" width="15" height="30" as="geometry" />
        </mxCell>
        <mxCell id="mFYE1-h2MJAMsI_2LWZ7-46" value="" style="rounded=0;whiteSpace=wrap;html=1;fillColor=#dae8fc;strokeColor=#6c8ebf;" vertex="1" parent="1">
          <mxGeometry x="1543.5" y="710" width="30" height="30" as="geometry" />
        </mxCell>
        <mxCell id="mFYE1-h2MJAMsI_2LWZ7-47" value="" style="shape=flexArrow;endArrow=classic;html=1;rounded=0;fillColor=#000066;strokeColor=#000066;endWidth=7;endSize=6.38;entryX=0;entryY=0.5;entryDx=0;entryDy=0;" edge="1" parent="1">
          <mxGeometry width="50" height="50" relative="1" as="geometry">
            <mxPoint x="1493.5" y="724.5" as="sourcePoint" />
            <mxPoint x="1523.5" y="725" as="targetPoint" />
          </mxGeometry>
        </mxCell>
        <mxCell id="mFYE1-h2MJAMsI_2LWZ7-48" value="" style="shape=flexArrow;endArrow=classic;html=1;rounded=0;fillColor=#000066;strokeColor=#000066;endWidth=7;endSize=6.38;entryX=0;entryY=0.5;entryDx=0;entryDy=0;" edge="1" parent="1">
          <mxGeometry width="50" height="50" relative="1" as="geometry">
            <mxPoint x="1573.5" y="724.5" as="sourcePoint" />
            <mxPoint x="1603.5" y="725" as="targetPoint" />
          </mxGeometry>
        </mxCell>
        <mxCell id="mFYE1-h2MJAMsI_2LWZ7-49" value="$$128$$" style="text;html=1;align=center;verticalAlign=middle;resizable=0;points=[];autosize=1;strokeColor=none;fillColor=none;rotation=0;" vertex="1" parent="1">
          <mxGeometry x="1523.5" y="680" width="70" height="30" as="geometry" />
        </mxCell>
        <mxCell id="mFYE1-h2MJAMsI_2LWZ7-50" value="" style="rounded=0;whiteSpace=wrap;html=1;fillColor=#dae8fc;strokeColor=#6c8ebf;" vertex="1" parent="1">
          <mxGeometry x="1623.5" y="787.5" width="30" height="12.5" as="geometry" />
        </mxCell>
        <mxCell id="mFYE1-h2MJAMsI_2LWZ7-51" value="" style="shape=flexArrow;endArrow=classic;html=1;rounded=0;fillColor=#000066;strokeColor=#000066;endWidth=7;endSize=6.38;entryX=0;entryY=0.5;entryDx=0;entryDy=0;" edge="1" parent="1">
          <mxGeometry width="50" height="50" relative="1" as="geometry">
            <mxPoint x="1658.5" y="793.25" as="sourcePoint" />
            <mxPoint x="1688.5" y="793.75" as="targetPoint" />
          </mxGeometry>
        </mxCell>
        <mxCell id="mFYE1-h2MJAMsI_2LWZ7-52" value="" style="shape=flexArrow;endArrow=classic;html=1;rounded=0;fillColor=#000066;strokeColor=#000066;endWidth=7;endSize=6.38;entryX=0;entryY=0.5;entryDx=0;entryDy=0;" edge="1" parent="1">
          <mxGeometry width="50" height="50" relative="1" as="geometry">
            <mxPoint x="1793.5" y="791.88" as="sourcePoint" />
            <mxPoint x="1793.5" y="791.88" as="targetPoint" />
          </mxGeometry>
        </mxCell>
        <mxCell id="mFYE1-h2MJAMsI_2LWZ7-53" value="" style="rounded=0;whiteSpace=wrap;html=1;fillColor=#dae8fc;strokeColor=#6c8ebf;" vertex="1" parent="1">
          <mxGeometry x="1713.5" y="787.5" width="30" height="12.5" as="geometry" />
        </mxCell>
        <mxCell id="mFYE1-h2MJAMsI_2LWZ7-54" value="" style="shape=flexArrow;endArrow=classic;html=1;rounded=0;fillColor=#000066;strokeColor=#000066;endWidth=7;endSize=6.38;entryX=0;entryY=0.5;entryDx=0;entryDy=0;" edge="1" parent="1">
          <mxGeometry width="50" height="50" relative="1" as="geometry">
            <mxPoint x="1748.5" y="794.5" as="sourcePoint" />
            <mxPoint x="1778.5" y="795" as="targetPoint" />
          </mxGeometry>
        </mxCell>
        <mxCell id="mFYE1-h2MJAMsI_2LWZ7-55" value="" style="rounded=0;whiteSpace=wrap;html=1;fillColor=#dae8fc;strokeColor=#6c8ebf;" vertex="1" parent="1">
          <mxGeometry x="1798.5" y="788.75" width="30" height="12.5" as="geometry" />
        </mxCell>
        <mxCell id="mFYE1-h2MJAMsI_2LWZ7-56" value="$$128$$" style="text;html=1;align=center;verticalAlign=middle;resizable=0;points=[];autosize=1;strokeColor=none;fillColor=none;rotation=0;" vertex="1" parent="1">
          <mxGeometry x="1693.5" y="760" width="70" height="30" as="geometry" />
        </mxCell>
        <mxCell id="mFYE1-h2MJAMsI_2LWZ7-57" value="&lt;div style=&quot;font-size: 13px;&quot;&gt;$$32^2$$&lt;/div&gt;" style="text;html=1;align=center;verticalAlign=middle;resizable=0;points=[];autosize=1;strokeColor=none;fillColor=none;rotation=-90;" vertex="1" parent="1">
          <mxGeometry x="1718.5" y="720" width="80" height="30" as="geometry" />
        </mxCell>
        <mxCell id="mFYE1-h2MJAMsI_2LWZ7-58" value="" style="rounded=0;whiteSpace=wrap;html=1;fillColor=#FFFFFF;strokeColor=#6c8ebf;" vertex="1" parent="1">
          <mxGeometry x="1768.5" y="710" width="30" height="30" as="geometry" />
        </mxCell>
        <mxCell id="mFYE1-h2MJAMsI_2LWZ7-59" value="$$256$$" style="text;html=1;align=center;verticalAlign=middle;resizable=0;points=[];autosize=1;strokeColor=none;fillColor=none;rotation=0;" vertex="1" parent="1">
          <mxGeometry x="1763.5" y="680" width="70" height="30" as="geometry" />
        </mxCell>
        <mxCell id="mFYE1-h2MJAMsI_2LWZ7-60" value="" style="rounded=0;whiteSpace=wrap;html=1;fillColor=#dae8fc;strokeColor=#6c8ebf;" vertex="1" parent="1">
          <mxGeometry x="1878.5" y="710" width="15" height="30" as="geometry" />
        </mxCell>
        <mxCell id="mFYE1-h2MJAMsI_2LWZ7-61" value="" style="rounded=0;whiteSpace=wrap;html=1;fillColor=#dae8fc;strokeColor=#6c8ebf;" vertex="1" parent="1">
          <mxGeometry x="1943.5" y="710" width="15" height="30" as="geometry" />
        </mxCell>
        <mxCell id="mFYE1-h2MJAMsI_2LWZ7-62" value="" style="shape=flexArrow;endArrow=classic;html=1;rounded=0;fillColor=#009900;strokeColor=#009900;endWidth=7;endSize=6.38;" edge="1" parent="1">
          <mxGeometry width="50" height="50" relative="1" as="geometry">
            <mxPoint x="1950.5" y="699" as="sourcePoint" />
            <mxPoint x="1950.5" y="670" as="targetPoint" />
          </mxGeometry>
        </mxCell>
        <mxCell id="mFYE1-h2MJAMsI_2LWZ7-63" value="" style="rounded=0;whiteSpace=wrap;html=1;fillColor=#FFFFFF;strokeColor=#6c8ebf;" vertex="1" parent="1">
          <mxGeometry x="1933.5" y="610" width="15" height="50" as="geometry" />
        </mxCell>
        <mxCell id="mFYE1-h2MJAMsI_2LWZ7-64" value="" style="rounded=0;whiteSpace=wrap;html=1;fillColor=#dae8fc;strokeColor=#6c8ebf;" vertex="1" parent="1">
          <mxGeometry x="1948.5" y="610" width="15" height="50" as="geometry" />
        </mxCell>
        <mxCell id="mFYE1-h2MJAMsI_2LWZ7-65" value="$$128$$" style="text;html=1;align=center;verticalAlign=middle;resizable=0;points=[];autosize=1;strokeColor=none;fillColor=none;rotation=0;" vertex="1" parent="1">
          <mxGeometry x="1911" y="580" width="70" height="30" as="geometry" />
        </mxCell>
        <mxCell id="mFYE1-h2MJAMsI_2LWZ7-66" value="&lt;div style=&quot;font-size: 13px;&quot;&gt;$$64^2$$&lt;/div&gt;" style="text;html=1;align=center;verticalAlign=middle;resizable=0;points=[];autosize=1;strokeColor=none;fillColor=none;rotation=-90;" vertex="1" parent="1">
          <mxGeometry x="1883.5" y="640" width="80" height="30" as="geometry" />
        </mxCell>
        <mxCell id="mFYE1-h2MJAMsI_2LWZ7-67" value="&lt;div style=&quot;font-size: 14px;&quot;&gt;$$16^2$$&lt;/div&gt;" style="text;html=1;align=center;verticalAlign=middle;resizable=0;points=[];autosize=1;strokeColor=none;fillColor=none;rotation=-90;" vertex="1" parent="1">
          <mxGeometry x="1653.5" y="780" width="80" height="30" as="geometry" />
        </mxCell>
        <mxCell id="mFYE1-h2MJAMsI_2LWZ7-68" value="&lt;div style=&quot;font-size: 14px;&quot;&gt;$$16^2$$&lt;/div&gt;" style="text;html=1;align=center;verticalAlign=middle;resizable=0;points=[];autosize=1;strokeColor=none;fillColor=none;rotation=-90;" vertex="1" parent="1">
          <mxGeometry x="1748.5" y="778.75" width="80" height="30" as="geometry" />
        </mxCell>
        <mxCell id="mFYE1-h2MJAMsI_2LWZ7-69" value="&lt;div style=&quot;font-size: 13px;&quot;&gt;$$32^2$$&lt;/div&gt;" style="text;html=1;align=center;verticalAlign=middle;resizable=0;points=[];autosize=1;strokeColor=none;fillColor=none;rotation=-90;" vertex="1" parent="1">
          <mxGeometry x="1493.5" y="720" width="80" height="30" as="geometry" />
        </mxCell>
        <mxCell id="mFYE1-h2MJAMsI_2LWZ7-70" value="&lt;div style=&quot;font-size: 13px;&quot;&gt;$$32^2$$&lt;/div&gt;" style="text;html=1;align=center;verticalAlign=middle;resizable=0;points=[];autosize=1;strokeColor=none;fillColor=none;rotation=-90;" vertex="1" parent="1">
          <mxGeometry x="1573.5" y="720" width="80" height="30" as="geometry" />
        </mxCell>
        <mxCell id="mFYE1-h2MJAMsI_2LWZ7-71" value="" style="rounded=0;whiteSpace=wrap;html=1;fillColor=#dae8fc;strokeColor=#6c8ebf;" vertex="1" parent="1">
          <mxGeometry x="1623.5" y="710" width="30" height="30" as="geometry" />
        </mxCell>
        <mxCell id="mFYE1-h2MJAMsI_2LWZ7-72" value="&lt;div style=&quot;font-size: 13px;&quot;&gt;$$32^2$$&lt;/div&gt;" style="text;html=1;align=center;verticalAlign=middle;resizable=0;points=[];autosize=1;strokeColor=none;fillColor=none;rotation=-90;" vertex="1" parent="1">
          <mxGeometry x="1828.5" y="720" width="80" height="30" as="geometry" />
        </mxCell>
        <mxCell id="mFYE1-h2MJAMsI_2LWZ7-73" value="" style="rounded=0;whiteSpace=wrap;html=1;fillColor=#dae8fc;strokeColor=#6c8ebf;" vertex="1" parent="1">
          <mxGeometry x="1383.5" y="460" width="10" height="100" as="geometry" />
        </mxCell>
        <mxCell id="mFYE1-h2MJAMsI_2LWZ7-74" value="&lt;div style=&quot;font-size: 13px;&quot;&gt;$$64^2$$&lt;/div&gt;" style="text;html=1;align=center;verticalAlign=middle;resizable=0;points=[];autosize=1;strokeColor=none;fillColor=none;rotation=-90;" vertex="1" parent="1">
          <mxGeometry x="1948.5" y="640" width="80" height="30" as="geometry" />
        </mxCell>
        <mxCell id="mFYE1-h2MJAMsI_2LWZ7-75" value="$$32$$" style="text;html=1;align=center;verticalAlign=middle;resizable=0;points=[];autosize=1;strokeColor=none;fillColor=none;rotation=0;" vertex="1" parent="1">
          <mxGeometry x="1968.5" y="580" width="70" height="30" as="geometry" />
        </mxCell>
        <mxCell id="mFYE1-h2MJAMsI_2LWZ7-76" value="" style="shape=flexArrow;endArrow=classic;html=1;rounded=0;fillColor=#000066;strokeColor=#000066;endWidth=7;endSize=6.38;entryX=0;entryY=0.5;entryDx=0;entryDy=0;" edge="1" parent="1">
          <mxGeometry width="50" height="50" relative="1" as="geometry">
            <mxPoint x="1963.5" y="634.5" as="sourcePoint" />
            <mxPoint x="1994" y="635" as="targetPoint" />
          </mxGeometry>
        </mxCell>
        <mxCell id="mFYE1-h2MJAMsI_2LWZ7-77" value="" style="rounded=0;whiteSpace=wrap;html=1;fillColor=#dae8fc;strokeColor=#6c8ebf;" vertex="1" parent="1">
          <mxGeometry x="2038.5" y="610" width="10" height="50" as="geometry" />
        </mxCell>
        <mxCell id="mFYE1-h2MJAMsI_2LWZ7-78" value="&lt;div style=&quot;font-size: 13px;&quot;&gt;$$64^2$$&lt;/div&gt;" style="text;html=1;align=center;verticalAlign=middle;resizable=0;points=[];autosize=1;strokeColor=none;fillColor=none;rotation=-90;" vertex="1" parent="1">
          <mxGeometry x="1988.5" y="640" width="80" height="30" as="geometry" />
        </mxCell>
        <mxCell id="mFYE1-h2MJAMsI_2LWZ7-79" value="" style="shape=flexArrow;endArrow=classic;html=1;rounded=0;fillColor=#000066;strokeColor=#000066;endWidth=7;endSize=6.38;entryX=0;entryY=0.5;entryDx=0;entryDy=0;" edge="1" parent="1">
          <mxGeometry width="50" height="50" relative="1" as="geometry">
            <mxPoint x="2008.5" y="634.5" as="sourcePoint" />
            <mxPoint x="2039" y="635" as="targetPoint" />
          </mxGeometry>
        </mxCell>
        <mxCell id="mFYE1-h2MJAMsI_2LWZ7-80" value="" style="shape=flexArrow;endArrow=classic;html=1;rounded=0;fillColor=#000066;strokeColor=#000066;endWidth=7;endSize=6.38;entryX=0;entryY=0.5;entryDx=0;entryDy=0;" edge="1" parent="1" target="mFYE1-h2MJAMsI_2LWZ7-81">
          <mxGeometry width="50" height="50" relative="1" as="geometry">
            <mxPoint x="1823.5" y="724.5" as="sourcePoint" />
            <mxPoint x="1854" y="725" as="targetPoint" />
          </mxGeometry>
        </mxCell>
        <mxCell id="mFYE1-h2MJAMsI_2LWZ7-81" value="" style="rounded=0;whiteSpace=wrap;html=1;fillColor=#dae8fc;strokeColor=#6c8ebf;" vertex="1" parent="1">
          <mxGeometry x="1798.5" y="710" width="30" height="30" as="geometry" />
        </mxCell>
        <mxCell id="mFYE1-h2MJAMsI_2LWZ7-82" value="" style="shape=flexArrow;endArrow=classic;html=1;rounded=0;fillColor=#000066;strokeColor=#000066;endWidth=7;endSize=6.38;entryX=0;entryY=0.5;entryDx=0;entryDy=0;" edge="1" parent="1">
          <mxGeometry width="50" height="50" relative="1" as="geometry">
            <mxPoint x="1828.5" y="724.5" as="sourcePoint" />
            <mxPoint x="1859" y="725" as="targetPoint" />
          </mxGeometry>
        </mxCell>
        <mxCell id="mFYE1-h2MJAMsI_2LWZ7-83" value="&lt;div style=&quot;font-size: 13px;&quot;&gt;$$32^2$$&lt;/div&gt;" style="text;html=1;align=center;verticalAlign=middle;resizable=0;points=[];autosize=1;strokeColor=none;fillColor=none;rotation=-90;" vertex="1" parent="1">
          <mxGeometry x="1893.5" y="720" width="80" height="30" as="geometry" />
        </mxCell>
        <mxCell id="mFYE1-h2MJAMsI_2LWZ7-84" value="" style="shape=flexArrow;endArrow=classic;html=1;rounded=0;fillColor=#000066;strokeColor=#000066;endWidth=7;endSize=6.38;entryX=0;entryY=0.5;entryDx=0;entryDy=0;" edge="1" parent="1">
          <mxGeometry width="50" height="50" relative="1" as="geometry">
            <mxPoint x="1893.5" y="724.5" as="sourcePoint" />
            <mxPoint x="1924" y="725" as="targetPoint" />
          </mxGeometry>
        </mxCell>
        <mxCell id="mFYE1-h2MJAMsI_2LWZ7-85" value="$$64$$" style="text;html=1;align=center;verticalAlign=middle;resizable=0;points=[];autosize=1;strokeColor=none;fillColor=none;rotation=0;" vertex="1" parent="1">
          <mxGeometry x="1851" y="680" width="70" height="30" as="geometry" />
        </mxCell>
        <mxCell id="mFYE1-h2MJAMsI_2LWZ7-86" value="" style="shape=flexArrow;endArrow=classic;html=1;rounded=0;fillColor=#009900;strokeColor=#009900;endWidth=7;endSize=6.38;" edge="1" parent="1">
          <mxGeometry width="50" height="50" relative="1" as="geometry">
            <mxPoint x="2043" y="599" as="sourcePoint" />
            <mxPoint x="2043" y="570" as="targetPoint" />
          </mxGeometry>
        </mxCell>
        <mxCell id="mFYE1-h2MJAMsI_2LWZ7-87" value="" style="rounded=0;whiteSpace=wrap;html=1;fillColor=#FFFFFF;strokeColor=#6c8ebf;" vertex="1" parent="1">
          <mxGeometry x="2033.5" y="460" width="10" height="100" as="geometry" />
        </mxCell>
        <mxCell id="mFYE1-h2MJAMsI_2LWZ7-88" value="" style="rounded=0;whiteSpace=wrap;html=1;fillColor=#dae8fc;strokeColor=#6c8ebf;" vertex="1" parent="1">
          <mxGeometry x="2043.5" y="460" width="10" height="100" as="geometry" />
        </mxCell>
        <mxCell id="mFYE1-h2MJAMsI_2LWZ7-89" value="$$64$$" style="text;html=1;align=center;verticalAlign=middle;resizable=0;points=[];autosize=1;strokeColor=none;fillColor=none;rotation=0;" vertex="1" parent="1">
          <mxGeometry x="2008.5" y="430" width="70" height="30" as="geometry" />
        </mxCell>
        <mxCell id="mFYE1-h2MJAMsI_2LWZ7-90" value="&lt;div style=&quot;font-size: 14px;&quot;&gt;$$128^2$$&lt;/div&gt;" style="text;html=1;align=center;verticalAlign=middle;resizable=0;points=[];autosize=1;strokeColor=none;fillColor=none;rotation=-90;" vertex="1" parent="1">
          <mxGeometry x="1978.5" y="530" width="90" height="30" as="geometry" />
        </mxCell>
        <mxCell id="mFYE1-h2MJAMsI_2LWZ7-91" value="" style="shape=flexArrow;endArrow=classic;html=1;rounded=0;fillColor=#000066;strokeColor=#000066;endWidth=7;endSize=6.38;entryX=0;entryY=0.5;entryDx=0;entryDy=0;" edge="1" parent="1">
          <mxGeometry width="50" height="50" relative="1" as="geometry">
            <mxPoint x="2053.5" y="509.5" as="sourcePoint" />
            <mxPoint x="2084" y="510" as="targetPoint" />
          </mxGeometry>
        </mxCell>
        <mxCell id="mFYE1-h2MJAMsI_2LWZ7-92" value="&lt;div style=&quot;font-size: 14px;&quot;&gt;$$128^2$$&lt;/div&gt;" style="text;html=1;align=center;verticalAlign=middle;resizable=0;points=[];autosize=1;strokeColor=none;fillColor=none;rotation=-90;" vertex="1" parent="1">
          <mxGeometry x="2033.5" y="530" width="90" height="30" as="geometry" />
        </mxCell>
        <mxCell id="mFYE1-h2MJAMsI_2LWZ7-93" value="" style="rounded=0;whiteSpace=wrap;html=1;fillColor=#dae8fc;strokeColor=#6c8ebf;" vertex="1" parent="1">
          <mxGeometry x="2088.5" y="460" width="5" height="100" as="geometry" />
        </mxCell>
        <mxCell id="mFYE1-h2MJAMsI_2LWZ7-94" value="$$16$$" style="text;html=1;align=center;verticalAlign=middle;resizable=0;points=[];autosize=1;strokeColor=none;fillColor=none;rotation=0;" vertex="1" parent="1">
          <mxGeometry x="2056" y="430" width="70" height="30" as="geometry" />
        </mxCell>
        <mxCell id="mFYE1-h2MJAMsI_2LWZ7-95" value="" style="shape=flexArrow;endArrow=classic;html=1;rounded=0;fillColor=#000066;strokeColor=#000066;endWidth=7;endSize=6.38;entryX=0;entryY=0.5;entryDx=0;entryDy=0;" edge="1" parent="1">
          <mxGeometry width="50" height="50" relative="1" as="geometry">
            <mxPoint x="2093.5" y="509.5" as="sourcePoint" />
            <mxPoint x="2124" y="510" as="targetPoint" />
          </mxGeometry>
        </mxCell>
        <mxCell id="mFYE1-h2MJAMsI_2LWZ7-96" value="&lt;div style=&quot;font-size: 14px;&quot;&gt;$$128^2$$&lt;/div&gt;" style="text;html=1;align=center;verticalAlign=middle;resizable=0;points=[];autosize=1;strokeColor=none;fillColor=none;rotation=-90;" vertex="1" parent="1">
          <mxGeometry x="2068.5" y="530" width="90" height="30" as="geometry" />
        </mxCell>
        <mxCell id="mFYE1-h2MJAMsI_2LWZ7-97" value="" style="rounded=0;whiteSpace=wrap;html=1;fillColor=#dae8fc;strokeColor=#6c8ebf;" vertex="1" parent="1">
          <mxGeometry x="2123.5" y="460" width="5" height="100" as="geometry" />
        </mxCell>
        <mxCell id="mFYE1-h2MJAMsI_2LWZ7-98" value="" style="rounded=0;whiteSpace=wrap;html=1;fillColor=#dae8fc;strokeColor=#6c8ebf;" vertex="1" parent="1">
          <mxGeometry x="2123.5" y="210" width="5" height="200" as="geometry" />
        </mxCell>
        <mxCell id="mFYE1-h2MJAMsI_2LWZ7-99" value="" style="shape=flexArrow;endArrow=classic;html=1;rounded=0;fillColor=#009900;strokeColor=#009900;endWidth=7;endSize=6.38;" edge="1" parent="1">
          <mxGeometry width="50" height="50" relative="1" as="geometry">
            <mxPoint x="2125.5" y="449" as="sourcePoint" />
            <mxPoint x="2125.5" y="420" as="targetPoint" />
          </mxGeometry>
        </mxCell>
        <mxCell id="mFYE1-h2MJAMsI_2LWZ7-100" value="$$32$$" style="text;html=1;align=center;verticalAlign=middle;resizable=0;points=[];autosize=1;strokeColor=none;fillColor=none;rotation=0;" vertex="1" parent="1">
          <mxGeometry x="2088.5" y="180" width="70" height="30" as="geometry" />
        </mxCell>
        <mxCell id="mFYE1-h2MJAMsI_2LWZ7-101" value="" style="rounded=0;whiteSpace=wrap;html=1;fillColor=#dae8fc;strokeColor=#6c8ebf;" vertex="1" parent="1">
          <mxGeometry x="1308.5" y="210" width="5" height="200" as="geometry" />
        </mxCell>
        <mxCell id="mFYE1-h2MJAMsI_2LWZ7-102" value="" style="shape=flexArrow;endArrow=classic;html=1;rounded=0;fillColor=#000066;strokeColor=#000066;endWidth=7;endSize=6.38;entryX=0;entryY=0.5;entryDx=0;entryDy=0;" edge="1" parent="1">
          <mxGeometry width="50" height="50" relative="1" as="geometry">
            <mxPoint x="2128.5" y="309.5" as="sourcePoint" />
            <mxPoint x="2159" y="310" as="targetPoint" />
          </mxGeometry>
        </mxCell>
        <mxCell id="mFYE1-h2MJAMsI_2LWZ7-103" value="" style="shape=flexArrow;endArrow=classic;html=1;rounded=0;fillColor=#000066;strokeColor=#000066;endWidth=7;endSize=6.38;entryX=0;entryY=0.5;entryDx=0;entryDy=0;" edge="1" parent="1">
          <mxGeometry width="50" height="50" relative="1" as="geometry">
            <mxPoint x="2168.5" y="309.5" as="sourcePoint" />
            <mxPoint x="2199" y="310" as="targetPoint" />
          </mxGeometry>
        </mxCell>
        <mxCell id="mFYE1-h2MJAMsI_2LWZ7-104" value="&lt;font style=&quot;font-size: 14px;&quot;&gt;$$256 \times 256$$&lt;/font&gt;" style="text;html=1;align=center;verticalAlign=middle;resizable=0;points=[];autosize=1;strokeColor=none;fillColor=none;rotation=-90;" vertex="1" parent="1">
          <mxGeometry x="2033.5" y="360" width="150" height="30" as="geometry" />
        </mxCell>
        <mxCell id="mFYE1-h2MJAMsI_2LWZ7-105" value="" style="rounded=0;whiteSpace=wrap;html=1;fillColor=#dae8fc;strokeColor=#6c8ebf;" vertex="1" parent="1">
          <mxGeometry x="2163.5" y="210" width="5" height="200" as="geometry" />
        </mxCell>
        <mxCell id="mFYE1-h2MJAMsI_2LWZ7-106" value="&lt;font style=&quot;font-size: 14px;&quot;&gt;$$256 \times 256$$&lt;/font&gt;" style="text;html=1;align=center;verticalAlign=middle;resizable=0;points=[];autosize=1;strokeColor=none;fillColor=none;rotation=-90;" vertex="1" parent="1">
          <mxGeometry x="2078.5" y="360" width="150" height="30" as="geometry" />
        </mxCell>
        <mxCell id="mFYE1-h2MJAMsI_2LWZ7-107" value="&lt;font style=&quot;font-size: 14px;&quot;&gt;$$256 \times 256$$&lt;/font&gt;" style="text;html=1;align=center;verticalAlign=middle;resizable=0;points=[];autosize=1;strokeColor=none;fillColor=none;rotation=-90;" vertex="1" parent="1">
          <mxGeometry x="2118.5" y="360" width="150" height="30" as="geometry" />
        </mxCell>
        <mxCell id="mFYE1-h2MJAMsI_2LWZ7-108" value="" style="rounded=0;whiteSpace=wrap;html=1;fillColor=#dae8fc;strokeColor=#6c8ebf;" vertex="1" parent="1">
          <mxGeometry x="2203.5" y="210" width="5" height="200" as="geometry" />
        </mxCell>
        <mxCell id="mFYE1-h2MJAMsI_2LWZ7-109" value="" style="shape=flexArrow;endArrow=classic;html=1;rounded=0;fillColor=#000066;strokeColor=#000066;endWidth=7;endSize=6.38;entryX=0;entryY=0.5;entryDx=0;entryDy=0;" edge="1" parent="1">
          <mxGeometry width="50" height="50" relative="1" as="geometry">
            <mxPoint x="1963.5" y="634.5" as="sourcePoint" />
            <mxPoint x="1994" y="635" as="targetPoint" />
          </mxGeometry>
        </mxCell>
        <mxCell id="mFYE1-h2MJAMsI_2LWZ7-110" value="" style="shape=flexArrow;endArrow=classic;html=1;rounded=0;fillColor=#009999;strokeColor=#009999;endWidth=7;endSize=6.38;entryX=0;entryY=0.5;entryDx=0;entryDy=0;" edge="1" parent="1">
          <mxGeometry width="50" height="50" relative="1" as="geometry">
            <mxPoint x="2208.5" y="309.5" as="sourcePoint" />
            <mxPoint x="2239" y="310" as="targetPoint" />
          </mxGeometry>
        </mxCell>
        <mxCell id="mFYE1-h2MJAMsI_2LWZ7-111" value="" style="rounded=0;whiteSpace=wrap;html=1;fillColor=#dae8fc;strokeColor=#6c8ebf;" vertex="1" parent="1">
          <mxGeometry x="2241" y="210" width="2" height="200" as="geometry" />
        </mxCell>
        <mxCell id="mFYE1-h2MJAMsI_2LWZ7-112" value="$$16$$" style="text;html=1;align=center;verticalAlign=middle;resizable=0;points=[];autosize=1;strokeColor=none;fillColor=none;rotation=0;" vertex="1" parent="1">
          <mxGeometry x="2131" y="180" width="70" height="30" as="geometry" />
        </mxCell>
        <mxCell id="mFYE1-h2MJAMsI_2LWZ7-113" value="$$16$$" style="text;html=1;align=center;verticalAlign=middle;resizable=0;points=[];autosize=1;strokeColor=none;fillColor=none;rotation=0;" vertex="1" parent="1">
          <mxGeometry x="2171" y="180" width="70" height="30" as="geometry" />
        </mxCell>
        <mxCell id="mFYE1-h2MJAMsI_2LWZ7-114" value="$$5$$" style="text;html=1;align=center;verticalAlign=middle;resizable=0;points=[];autosize=1;strokeColor=none;fillColor=none;rotation=0;" vertex="1" parent="1">
          <mxGeometry x="2212" y="180" width="60" height="30" as="geometry" />
        </mxCell>
        <mxCell id="mFYE1-h2MJAMsI_2LWZ7-115" value="" style="shape=flexArrow;endArrow=classic;html=1;rounded=0;fillColor=#000066;strokeColor=#000066;endWidth=7;endSize=6.38;entryX=0;entryY=0.5;entryDx=0;entryDy=0;" edge="1" parent="1">
          <mxGeometry width="50" height="50" relative="1" as="geometry">
            <mxPoint x="2083.5" y="644.5" as="sourcePoint" />
            <mxPoint x="2114" y="645" as="targetPoint" />
          </mxGeometry>
        </mxCell>
        <mxCell id="mFYE1-h2MJAMsI_2LWZ7-116" value="" style="shape=flexArrow;endArrow=classic;html=1;rounded=0;fillColor=#999999;strokeColor=#999999;endWidth=7;endSize=6.38;entryX=0;entryY=0.5;entryDx=0;entryDy=0;" edge="1" parent="1">
          <mxGeometry width="50" height="50" relative="1" as="geometry">
            <mxPoint x="2083.5" y="674.5" as="sourcePoint" />
            <mxPoint x="2114" y="675" as="targetPoint" />
          </mxGeometry>
        </mxCell>
        <mxCell id="mFYE1-h2MJAMsI_2LWZ7-117" value="" style="shape=flexArrow;endArrow=classic;html=1;rounded=0;fillColor=#660000;strokeColor=#660000;endWidth=7;endSize=6.38;" edge="1" parent="1">
          <mxGeometry width="50" height="50" relative="1" as="geometry">
            <mxPoint x="2101" y="700" as="sourcePoint" />
            <mxPoint x="2101" y="730" as="targetPoint" />
          </mxGeometry>
        </mxCell>
        <mxCell id="mFYE1-h2MJAMsI_2LWZ7-118" value="" style="shape=flexArrow;endArrow=classic;html=1;rounded=0;fillColor=#009900;strokeColor=#009900;endWidth=7;endSize=6.38;" edge="1" parent="1">
          <mxGeometry width="50" height="50" relative="1" as="geometry">
            <mxPoint x="2101" y="767.5" as="sourcePoint" />
            <mxPoint x="2101" y="738.5" as="targetPoint" />
          </mxGeometry>
        </mxCell>
        <mxCell id="mFYE1-h2MJAMsI_2LWZ7-119" value="" style="shape=flexArrow;endArrow=classic;html=1;rounded=0;fillColor=#009999;strokeColor=#009999;endWidth=7;endSize=6.38;entryX=0;entryY=0.5;entryDx=0;entryDy=0;" edge="1" parent="1">
          <mxGeometry width="50" height="50" relative="1" as="geometry">
            <mxPoint x="2085.5" y="784.5" as="sourcePoint" />
            <mxPoint x="2116" y="785" as="targetPoint" />
          </mxGeometry>
        </mxCell>
        <mxCell id="mFYE1-h2MJAMsI_2LWZ7-120" value="&lt;font style=&quot;font-size: 14px;&quot;&gt;$$256 \times 256$$&lt;/font&gt;" style="text;html=1;align=center;verticalAlign=middle;resizable=0;points=[];autosize=1;strokeColor=none;fillColor=none;rotation=-90;" vertex="1" parent="1">
          <mxGeometry x="2158.5" y="360" width="150" height="30" as="geometry" />
        </mxCell>
        <mxCell id="mFYE1-h2MJAMsI_2LWZ7-121" value="&lt;font color=&quot;#0000cc&quot; style=&quot;font-size: 14px;&quot;&gt;conv 3x3, ReLU&lt;/font&gt;" style="text;html=1;align=center;verticalAlign=middle;resizable=0;points=[];autosize=1;strokeColor=none;fillColor=none;" vertex="1" parent="1">
          <mxGeometry x="2116" y="630" width="120" height="30" as="geometry" />
        </mxCell>
        <mxCell id="mFYE1-h2MJAMsI_2LWZ7-122" value="&lt;font style=&quot;font-size: 14px;&quot; color=&quot;#666666&quot;&gt;copy and concat&lt;br&gt;&lt;/font&gt;" style="text;html=1;align=center;verticalAlign=middle;resizable=0;points=[];autosize=1;strokeColor=none;fillColor=none;" vertex="1" parent="1">
          <mxGeometry x="2111" y="660" width="130" height="30" as="geometry" />
        </mxCell>
        <mxCell id="mFYE1-h2MJAMsI_2LWZ7-123" value="&lt;font color=&quot;#990000&quot; style=&quot;font-size: 14px;&quot;&gt;max pool 2x2&lt;/font&gt;&lt;font color=&quot;#990000&quot; style=&quot;font-size: 14px;&quot;&gt;&lt;br&gt;&lt;/font&gt;" style="text;html=1;align=center;verticalAlign=middle;resizable=0;points=[];autosize=1;strokeColor=none;fillColor=none;" vertex="1" parent="1">
          <mxGeometry x="2111" y="700" width="110" height="30" as="geometry" />
        </mxCell>
        <mxCell id="mFYE1-h2MJAMsI_2LWZ7-124" value="&lt;font color=&quot;#009900&quot; style=&quot;font-size: 14px;&quot;&gt;bilinear upsampling&lt;/font&gt;&lt;font color=&quot;#009900&quot; style=&quot;font-size: 14px;&quot;&gt;&lt;br&gt;&lt;/font&gt;" style="text;html=1;align=center;verticalAlign=middle;resizable=0;points=[];autosize=1;strokeColor=none;fillColor=none;" vertex="1" parent="1">
          <mxGeometry x="2111" y="740" width="150" height="30" as="geometry" />
        </mxCell>
        <mxCell id="mFYE1-h2MJAMsI_2LWZ7-125" value="&lt;font color=&quot;#009999&quot; style=&quot;font-size: 14px;&quot;&gt;conv 1x1&lt;br&gt;&lt;/font&gt;" style="text;html=1;align=center;verticalAlign=middle;resizable=0;points=[];autosize=1;strokeColor=none;fillColor=none;" vertex="1" parent="1">
          <mxGeometry x="2113.5" y="770" width="80" height="30" as="geometry" />
        </mxCell>
        <mxCell id="mFYE1-h2MJAMsI_2LWZ7-126" value="" style="rounded=1;whiteSpace=wrap;html=1;fillColor=none;" vertex="1" parent="1">
          <mxGeometry x="2071" y="620" width="190" height="190" as="geometry" />
        </mxCell>
      </root>
    </mxGraphModel>
  </diagram>
</mxfile>
